<?xml version="1.0" encoding="UTF-8"?>
<svg xmlns="http://www.w3.org/2000/svg" xmlns:xlink="http://www.w3.org/1999/xlink" width="20px" height="20px" viewBox="0 0 20 20" version="1.1">
<g id="surface1">
<path style=" stroke:none;fill-rule:evenodd;fill:rgb(13.72549%,15.686275%,19.215686%);fill-opacity:1;" d="M 10.097656 19.949219 C 15.621094 19.949219 20.097656 15.472656 20.097656 9.949219 C 20.097656 4.425781 15.621094 -0.0507812 10.097656 -0.0507812 C 4.574219 -0.0507812 0.0976562 4.425781 0.0976562 9.949219 C 0.0976562 15.472656 4.574219 19.949219 10.097656 19.949219 "/>
<path style=" stroke:none;fill-rule:evenodd;fill:rgb(74.901961%,38.039216%,41.568627%);fill-opacity:1;" d="M 10 18.125 C 14.488281 18.125 18.125 14.488281 18.125 10 C 18.125 5.511719 14.488281 1.875 10 1.875 C 5.511719 1.875 1.875 5.511719 1.875 10 C 1.875 14.488281 5.511719 18.125 10 18.125 "/>
<path style=" stroke:none;fill-rule:evenodd;fill:rgb(13.72549%,11.372549%,16.862745%);fill-opacity:1;" d="M 6.441406 5.660156 C 6.253906 5.660156 6.066406 5.734375 5.925781 5.875 L 5.910156 5.890625 C 5.628906 6.171875 5.628906 6.636719 5.910156 6.921875 L 9.054688 10.0625 L 5.910156 13.207031 C 5.628906 13.492188 5.628906 13.953125 5.910156 14.238281 L 5.925781 14.253906 C 6.207031 14.539062 6.671875 14.539062 6.957031 14.253906 L 10.097656 11.113281 L 13.242188 14.253906 C 13.523438 14.539062 13.988281 14.539062 14.273438 14.253906 L 14.285156 14.238281 C 14.570312 13.953125 14.570312 13.492188 14.285156 13.207031 L 11.144531 10.0625 L 14.285156 6.921875 C 14.570312 6.636719 14.570312 6.171875 14.285156 5.890625 L 14.273438 5.875 C 13.988281 5.59375 13.523438 5.59375 13.242188 5.875 L 10.097656 9.019531 L 6.957031 5.875 C 6.816406 5.734375 6.628906 5.660156 6.441406 5.660156 Z M 6.441406 5.660156 "/>
</g>
</svg>
