<?xml version="1.0" encoding="UTF-8"?>
<svg xmlns="http://www.w3.org/2000/svg" xmlns:xlink="http://www.w3.org/1999/xlink" width="20px" height="20px" viewBox="0 0 20 20" version="1.1">
<g id="surface1">
<path style=" stroke:none;fill-rule:evenodd;fill:rgb(13.72549%,15.686275%,19.215686%);fill-opacity:1;" d="M 9.988281 19.730469 C 15.511719 19.730469 19.988281 15.253906 19.988281 9.730469 C 19.988281 4.207031 15.511719 -0.269531 9.988281 -0.269531 C 4.46875 -0.269531 -0.0117188 4.207031 -0.0117188 9.730469 C -0.0117188 15.253906 4.46875 19.730469 9.988281 19.730469 "/>
<path style=" stroke:none;fill-rule:evenodd;fill:rgb(92.156863%,79.607843%,54.509804%);fill-opacity:1;" d="M 10 17.984375 C 14.488281 17.984375 18.125 14.347656 18.125 9.859375 C 18.125 5.371094 14.488281 1.734375 10 1.734375 C 5.511719 1.734375 1.875 5.371094 1.875 9.859375 C 1.875 14.347656 5.511719 17.984375 10 17.984375 "/>
<path style=" stroke:none;fill-rule:evenodd;fill:rgb(13.72549%,15.686275%,19.215686%);fill-opacity:1;" d="M 4.570312 9.242188 L 14.9375 9.242188 C 15.339844 9.242188 15.667969 9.570312 15.667969 9.96875 L 15.667969 9.988281 C 15.667969 10.390625 15.339844 10.71875 14.9375 10.71875 L 4.570312 10.71875 C 4.167969 10.71875 3.839844 10.390625 3.839844 9.988281 L 3.839844 9.96875 C 3.839844 9.570312 4.167969 9.242188 4.570312 9.242188 "/>
</g>
</svg>
