<?xml version="1.0" encoding="UTF-8"?>
<svg xmlns="http://www.w3.org/2000/svg" xmlns:xlink="http://www.w3.org/1999/xlink" width="20px" height="20px" viewBox="0 0 20 20" version="1.1">
<g id="surface1">
<path style=" stroke:none;fill-rule:evenodd;fill:rgb(13.72549%,15.686275%,19.215686%);fill-opacity:1;" d="M 10.011719 20.035156 C 15.535156 20.035156 20.011719 15.558594 20.011719 10.035156 C 20.011719 4.515625 15.535156 0.0351562 10.011719 0.0351562 C 4.488281 0.0351562 0.0117188 4.515625 0.0117188 10.035156 C 0.0117188 15.558594 4.488281 20.035156 10.011719 20.035156 "/>
<path style=" stroke:none;fill-rule:evenodd;fill:rgb(63.921569%,74.509804%,54.901961%);fill-opacity:1;" d="M 9.902344 18.324219 C 14.386719 18.324219 18.027344 14.683594 18.027344 10.199219 C 18.027344 5.710938 14.386719 2.074219 9.902344 2.074219 C 5.414062 2.074219 1.777344 5.710938 1.777344 10.199219 C 1.777344 14.683594 5.414062 18.324219 9.902344 18.324219 "/>
<path style=" stroke:none;fill-rule:evenodd;fill:rgb(13.72549%,15.686275%,19.215686%);fill-opacity:1;" d="M 7.484375 5.582031 L 13.035156 5.582031 C 13.777344 5.582031 14.378906 6.1875 14.378906 6.925781 L 14.378906 12.476562 Z M 12.3125 14.644531 L 6.738281 14.644531 C 6 14.644531 5.394531 14.039062 5.394531 13.300781 L 5.394531 7.726562 L 12.3125 14.644531 "/>
</g>
</svg>
