<?xml version="1.0" encoding="UTF-8"?>
<svg xmlns="http://www.w3.org/2000/svg" xmlns:xlink="http://www.w3.org/1999/xlink" width="18px" height="18px" viewBox="0 0 18 18" version="1.1">
<g id="surface1">
<path style=" stroke:none;fill-rule:evenodd;fill:rgb(13.72549%,15.686275%,19.215686%);fill-opacity:1;" d="M 9.085938 17.953125 C 14.058594 17.953125 18.085938 13.925781 18.085938 8.953125 C 18.085938 3.984375 14.058594 -0.046875 9.085938 -0.046875 C 4.117188 -0.046875 0.0859375 3.984375 0.0859375 8.953125 C 0.0859375 13.925781 4.117188 17.953125 9.085938 17.953125 "/>
<path style=" stroke:none;fill-rule:evenodd;fill:rgb(74.901961%,38.039216%,41.568627%);fill-opacity:1;" d="M 9 16.3125 C 13.039062 16.3125 16.3125 13.039062 16.3125 9 C 16.3125 4.960938 13.039062 1.6875 9 1.6875 C 4.960938 1.6875 1.6875 4.960938 1.6875 9 C 1.6875 13.039062 4.960938 16.3125 9 16.3125 "/>
<path style=" stroke:none;fill-rule:evenodd;fill:rgb(13.72549%,11.372549%,16.862745%);fill-opacity:1;" d="M 5.796875 5.09375 C 5.628906 5.09375 5.460938 5.160156 5.332031 5.289062 L 5.320312 5.300781 C 5.066406 5.554688 5.066406 5.972656 5.320312 6.230469 L 8.148438 9.054688 L 5.320312 11.886719 C 5.066406 12.144531 5.066406 12.558594 5.320312 12.8125 L 5.332031 12.828125 C 5.585938 13.085938 6.003906 13.085938 6.261719 12.828125 L 9.085938 10 L 11.917969 12.828125 C 12.171875 13.085938 12.589844 13.085938 12.847656 12.828125 L 12.855469 12.8125 C 13.113281 12.558594 13.113281 12.144531 12.855469 11.886719 L 10.03125 9.054688 L 12.855469 6.230469 C 13.113281 5.972656 13.113281 5.554688 12.855469 5.300781 L 12.847656 5.289062 C 12.589844 5.035156 12.171875 5.035156 11.917969 5.289062 L 9.085938 8.117188 L 6.261719 5.289062 C 6.132812 5.160156 5.964844 5.09375 5.796875 5.09375 Z M 5.796875 5.09375 "/>
</g>
</svg>
