<?xml version="1.0" encoding="UTF-8"?>
<svg xmlns="http://www.w3.org/2000/svg" xmlns:xlink="http://www.w3.org/1999/xlink" width="18px" height="18px" viewBox="0 0 18 18" version="1.1">
<g id="surface1">
<path style=" stroke:none;fill-rule:evenodd;fill:rgb(13.72549%,15.686275%,19.215686%);fill-opacity:1;" d="M 9.011719 18.03125 C 13.980469 18.03125 18.011719 14.003906 18.011719 9.03125 C 18.011719 4.0625 13.980469 0.03125 9.011719 0.03125 C 4.039062 0.03125 0.0117188 4.0625 0.0117188 9.03125 C 0.0117188 14.003906 4.039062 18.03125 9.011719 18.03125 "/>
<path style=" stroke:none;fill-rule:evenodd;fill:rgb(63.921569%,74.509804%,54.901961%);fill-opacity:1;" d="M 8.914062 16.492188 C 12.949219 16.492188 16.226562 13.214844 16.226562 9.179688 C 16.226562 5.140625 12.949219 1.867188 8.914062 1.867188 C 4.871094 1.867188 1.601562 5.140625 1.601562 9.179688 C 1.601562 13.214844 4.871094 16.492188 8.914062 16.492188 "/>
<path style=" stroke:none;fill-rule:evenodd;fill:rgb(13.72549%,15.686275%,19.215686%);fill-opacity:1;" d="M 6.734375 5.023438 L 11.730469 5.023438 C 12.398438 5.023438 12.941406 5.570312 12.941406 6.234375 L 12.941406 11.230469 Z M 11.082031 13.179688 L 6.0625 13.179688 C 5.398438 13.179688 4.855469 12.636719 4.855469 11.96875 L 4.855469 6.953125 L 11.082031 13.179688 "/>
</g>
</svg>
